# xmcd
#
# Track frame offsets: 
#        150
#        24258
#        31261
#        49385
#        72168
#        91666
#        111437
#        156849
#        174792
#        179610
#        204876
#        220375
#        236942
#        249409
#        269190
#        274792
#        288592
#        295950
#        302611
#
# Disc length: 4444 seconds
#
# Revision: 0
# Processed by: cddbd v1.5.2PL0 Copyright (c) Steve Scherf et al.
# Submitted via: ExactAudioCopy v0.95b3
#
DISCID=1d115a13
DTITLE=Ольга Арефьева - Смерть и приключения Ефросиньи Прекрасной
DYEAR=2007
DGENRE=Rock
TTITLE0=Время текло крестообразно
TTITLE1=Звук
TTITLE2=Game over
TTITLE3=Без подготовки
TTITLE4=Кошки
TTITLE5=Солнечной ночью
TTITLE6=Знакоположение
TTITLE7=Щепочка
TTITLE8=Если есть, то часто нет
TTITLE9=Одинокие грибы
TTITLE10=Десять значений песни
TTITLE11=Рыцарь
TTITLE12=Мяу, выраженное словами
TTITLE13=Праздник почитаний тени
TTITLE14=Я не ангел со вставной челюстью
TTITLE15=Вторая нога
TTITLE16=Кнопки в своей голове
TTITLE17=Точки
TTITLE18=Было абстрактно
EXTD=
EXTT0=
EXTT1=
EXTT2=
EXTT3=
EXTT4=
EXTT5=
EXTT6=
EXTT7=
EXTT8=
EXTT9=
EXTT10=
EXTT11=
EXTT12=
EXTT13=
EXTT14=
EXTT15=
EXTT16=
EXTT17=
EXTT18=
PLAYORDER=
